<?xml version="1.0" encoding="UTF-8"?><!DOCTYPE svg PUBLIC "-//W3C//DTD SVG 1.1//EN" "http://www.w3.org/Graphics/SVG/1.1/DTD/svg11.dtd"><svg xmlns="http://www.w3.org/2000/svg" xmlns:xlink="http://www.w3.org/1999/xlink" version="1.1" id="Layer_1" x="0px" y="0px" width="24px" height="24px" viewBox="0 0 24 24" xml:space="preserve"><path d="M15 13.4c-.5 0-.9.5-.9 1.2s.4 1.2.9 1.2.9-.5.9-1.2-.4-1.2-.9-1.2z"/><path d="M9 13.4c-.5 0-.9.5-.9 1.2s.4 1.2.9 1.2.9-.5.9-1.2-.4-1.2-.9-1.2z"/><path d="M21.9 8.4c.1-.2.3-.5.4-.7.7-1.8.4-3.8-.7-5.4-.2-.2-.4-.3-.6-.3-1.9.3-3.5 1.6-4.3 3.4 0 .1-.1.2-.1.2H7.3c0-.1-.1-.2-.1-.2C6.5 3.6 4.9 2.4 3 2c-.2 0-.4 0-.5.2C1.3 3.8 1 5.8 1.8 7.6c.1.3.2.5.3.8-1 1.3-1.6 2.9-1.6 4.5v1.9c0 4 3.2 7.2 7.2 7.2h8.6c4 0 7.2-3.2 7.2-7.2v-1.9c0-1.7-.6-3.3-1.6-4.5zM18.6 15c0 1.9-1.6 3.5-3.5 3.5H8.9c-1.9 0-3.5-1.6-3.5-3.5v-.8c0-1.9 1.6-3.5 3.5-3.5h6.2c1.9 0 3.5 1.6 3.5 3.5v.8z"/><metadata><rdf:RDF xmlns:rdf="http://www.w3.org/1999/02/22-rdf-syntax-ns#" xmlns:rdfs="http://www.w3.org/2000/01/rdf-schema#" xmlns:dc="http://purl.org/dc/elements/1.1/"><rdf:Description about="https://iconscout.com/legal#licenses" dc:title="github,copy" dc:description="github,copy" dc:publisher="Iconscout" dc:date="2018-01-30" dc:format="image/svg+xml" dc:language="en"><dc:creator><rdf:Bag><rdf:li>Roundicons.com</rdf:li></rdf:Bag></dc:creator></rdf:Description></rdf:RDF></metadata></svg>